<svg id="Layer_1" data-name="Layer 1" xmlns="http://www.w3.org/2000/svg" width="792" height="165.85" viewBox="0 0 792 165.85"><defs><style>.cls-1{fill:#46b978;}</style></defs><path class="cls-1" d="M98.36,60.35A30.45,30.45,0,0,1,94.5,67.8a29.91,29.91,0,0,1-5.52,6,35.51,35.51,0,0,1-6.45,4.19Q94.59,80.12,102,88.07a27.23,27.23,0,0,1,7.37,19.18,29.85,29.85,0,0,1-10.56,23A36.84,36.84,0,0,1,86.63,137a48.74,48.74,0,0,1-15.83,2.43H23.91V22.16H67.45A38,38,0,0,1,80.6,24.34a30.21,30.21,0,0,1,10.22,6.11,27.49,27.49,0,0,1,6.61,9.3,29.24,29.24,0,0,1,2.35,11.89A26.13,26.13,0,0,1,98.36,60.35ZM65.28,73.58a21.89,21.89,0,0,0,15.57-6.11,18.68,18.68,0,0,0,4.36-6.53,21.76,21.76,0,0,0,1.5-8.13q0-9-6.28-14.48T63.77,32.88H37.14v40.7Zm23.61,48.91q7.2-6,7.2-16.25a20.51,20.51,0,0,0-1.92-8.79,19.48,19.48,0,0,0-5.45-7A26.92,26.92,0,0,0,80.27,86a33.94,33.94,0,0,0-11-1.68H37.14v44.22h31Q81.69,128.52,88.89,122.49Z"/><path class="cls-1" d="M137.13,22.16V139.41h-13.4V22.16Z"/><path class="cls-1" d="M241.47,38.07q-10.72-6.53-26-6.53a52.27,52.27,0,0,0-19.93,3.69A46.64,46.64,0,0,0,180,45.44,45.7,45.7,0,0,0,169.87,61a53,53,0,0,0-3.6,19.76A53.63,53.63,0,0,0,170,101a46.51,46.51,0,0,0,10.22,15.66,45.6,45.6,0,0,0,15.58,10.13,52.9,52.9,0,0,0,19.76,3.6,53.45,53.45,0,0,0,17.5-2.68,43.37,43.37,0,0,0,23.28-18.34,50.41,50.41,0,0,0,5.95-13.65H208.47v-11h68a67.13,67.13,0,0,1-5.36,22.11A57.15,57.15,0,0,1,240,137.23a63.08,63.08,0,0,1-24.45,4.52,65.47,65.47,0,0,1-25-4.69,60.84,60.84,0,0,1-19.85-12.89,58.62,58.62,0,0,1-13.06-19.35,61.27,61.27,0,0,1-4.69-24,63.31,63.31,0,0,1,4.6-24.28,57.11,57.11,0,0,1,12.9-19.35,59.48,59.48,0,0,1,19.85-12.73,67.68,67.68,0,0,1,25.29-4.6q19.77,0,34.08,9.29t21.86,26.22h-13.4A45.52,45.52,0,0,0,241.47,38.07Z"/><path class="cls-1" d="M308.26,33.72h26.5a33,33,0,0,1,12.81,2.34A28.42,28.42,0,0,1,357,42.35a25.77,25.77,0,0,1,5.77,9A29.75,29.75,0,0,1,364.74,62a30.51,30.51,0,0,1-1.93,10.72A25.65,25.65,0,0,1,357,81.87a29.38,29.38,0,0,1-9.47,6.37,32,32,0,0,1-12.81,2.43h-26.5v10.54H346a39.34,39.34,0,0,0,13.11-5.27,41.28,41.28,0,0,0,10.13-9,39.23,39.23,0,0,0,6.45-11.55A39.74,39.74,0,0,0,378,62a39.24,39.24,0,0,0-11.55-28,40.4,40.4,0,0,0-13.24-8.71,44.34,44.34,0,0,0-17.08-3.18H308.26Z"/><rect class="cls-1" x="291.55" y="22.16" width="11.77" height="117.25"/><polygon class="cls-1" points="350.59 106.15 334.03 106.15 364.74 139.41 381.66 139.41 350.59 106.15"/><path class="cls-1" d="M447.51,130a48.78,48.78,0,0,1-17.37-3.79,46.79,46.79,0,0,1-15.41-10.56A48.14,48.14,0,0,1,404.68,100a50.92,50.92,0,0,1-3.6-19.18,51.6,51.6,0,0,1,3.6-19.26,46.46,46.46,0,0,1,25.46-26.13,48.78,48.78,0,0,1,17.37-3.79V19.87a64.3,64.3,0,0,0-22.39,4.64A60,60,0,0,0,405.35,37.4a59.34,59.34,0,0,0-13,19.35,61.22,61.22,0,0,0-4.69,24A61.72,61.72,0,0,0,392.37,105a58.43,58.43,0,0,0,13,19.26,60.72,60.72,0,0,0,19.77,12.81,64.3,64.3,0,0,0,22.39,4.64Z"/><path class="cls-1" d="M507.61,56.75a59.37,59.37,0,0,0-13-19.35,60,60,0,0,0-19.68-12.89,63.92,63.92,0,0,0-22.49-4.64V31.6a49.47,49.47,0,0,1,17.47,3.79,47.19,47.19,0,0,1,15.49,10.47,46.14,46.14,0,0,1,10,15.66,52.77,52.77,0,0,1,3.52,19.26A52.08,52.08,0,0,1,495.38,100a47.13,47.13,0,0,1-10,15.66,46.51,46.51,0,0,1-15.49,10.56A49.47,49.47,0,0,1,452.45,130V141.7a63.92,63.92,0,0,0,22.49-4.64,60,60,0,0,0,19.68-12.89,59.37,59.37,0,0,0,13-19.35,61.45,61.45,0,0,0,4.69-24A61.4,61.4,0,0,0,507.61,56.75Z"/><path class="cls-1" d="M581.5,130a49.18,49.18,0,0,1-18.38-3.81,46.79,46.79,0,0,1-15.41-10.56,48.28,48.28,0,0,1-10-15.66,50.73,50.73,0,0,1-3.61-19.18,51.41,51.41,0,0,1,3.61-19.26,46.41,46.41,0,0,1,25.45-26.13,49.18,49.18,0,0,1,18.38-3.81V19.85a64.41,64.41,0,0,0-23.4,4.66,58.71,58.71,0,0,0-32.75,32.24,61.39,61.39,0,0,0-4.68,24A61.9,61.9,0,0,0,525.35,105a58.58,58.58,0,0,0,13,19.26,60.72,60.72,0,0,0,19.77,12.81,64.41,64.41,0,0,0,23.4,4.66Z"/><path class="cls-1" d="M640.59,56.75a59.34,59.34,0,0,0-13-19.35,60.18,60.18,0,0,0-19.68-12.89,63.41,63.41,0,0,0-21.49-4.61V31.66a48.85,48.85,0,0,1,16.46,3.73,47.23,47.23,0,0,1,15.5,10.47,46,46,0,0,1,10,15.66,52.56,52.56,0,0,1,3.52,19.26A51.87,51.87,0,0,1,628.36,100a46.24,46.24,0,0,1-25.46,26.22,48.85,48.85,0,0,1-16.46,3.73v11.76a63.65,63.65,0,0,0,21.49-4.61,60.18,60.18,0,0,0,19.68-12.89,59.34,59.34,0,0,0,13-19.35,61.27,61.27,0,0,0,4.69-24A61.22,61.22,0,0,0,640.59,56.75Z"/><polygon class="cls-1" points="764.02 61.62 764.02 139.41 775.92 139.41 775.92 38.15 764.02 61.62"/><polygon class="cls-1" points="660.35 38.16 660.35 139.41 672.24 139.41 672.24 61.63 660.35 38.16"/><polygon class="cls-1" points="726.82 123.93 764.02 50.47 764.02 50.69 775.92 27.22 775.92 22.16 765.53 22.16 720.94 111.98 726.82 123.93"/><polygon class="cls-1" points="718.17 117.55 718.13 117.63 670.73 22.16 660.35 22.16 660.35 27.22 672.24 50.7 672.24 50.47 718.13 141.08 724.03 129.44 718.17 117.55"/></svg>